<svg fill="#ff4d00" height="200px" width="200px" version="1.1" id="_x31_" xmlns="http://www.w3.org/2000/svg" xmlns:xlink="http://www.w3.org/1999/xlink" viewBox="0 0 128 128" xml:space="preserve" stroke="#ff4d00"><g id="SVGRepo_bgCarrier" stroke-width="0"></g><g id="SVGRepo_tracerCarrier" stroke-linecap="round" stroke-linejoin="round"></g><g id="SVGRepo_iconCarrier"> <g id="_x31__57_"> <path id="_x34__33_" d="M82.8,55.5c-0.2-0.6-0.7-1-1.3-1.2l-44.9-12l0.3-14.9c0-0.9-0.6-1.7-1.5-2l-11.6-3.1 c-1.1-0.3-2.2,0.3-2.4,1.4c-0.3,1.1,0.3,2.2,1.4,2.4l10.1,2.7l-1,60.3c0,0.9,0.6,1.7,1.5,2l28,7.5c0.2,0,0.3,0.1,0.5,0.1 c0.9,0,1.7-0.6,1.9-1.5c0.3-1.1-0.3-2.2-1.4-2.4l-26.5-7.1l0.1-8.5l30.7,4.4c0.8,0.1,1.6-0.3,2-1l14-25.2C83,56.7,83,56,82.8,55.5z M36.5,46.4l11,3l-3.1,11.4l-8.2-2.2L36.5,46.4z M40.5,75.7l-4.5-0.6l0.2-12.4l7.2,1.9L40.5,75.7z M56.5,78l-12-1.7l2.8-10.6 L59,68.8L56.5,78z M48.4,61.8l3.1-11.4L63,53.5L60,64.9L48.4,61.8z M65.9,79.3l-5.4-0.8l2.3-8.7l7.2,1.9L65.9,79.3z M72,68.2 L63.9,66l3.1-11.4l11,3L72,68.2z"></path> <ellipse id="_x33__33_" transform="matrix(0.2588 -0.9659 0.9659 0.2588 -70.0739 102.4983)" cx="31.8" cy="96.9" rx="4" ry="4"></ellipse> <ellipse id="_x33__32_" transform="matrix(0.2588 -0.9659 0.9659 0.2588 -56.5621 135.1188)" cx="59.8" cy="104.4" rx="4" ry="4"></ellipse> <g id="_x33__31_"> <ellipse transform="matrix(0.8192 -0.5736 0.5736 0.8192 -15.6639 68.8653)" cx="101.4" cy="59.3" rx="6.5" ry="6.5"></ellipse> </g> <path id="_x32__61_" d="M94.1,50.3c0,0-6.6-9.4-6.6-9.5c0,0,0,0,0,0c-1-1.3-2.8-1.9-4.3-1.1L65.4,48L76,50.8l6.6-3.1l5.5,7.8 l-5.2,11c-0.6,1.2,0,2.7,1.2,3.3c1.2,0.6,2.7,0,3.3-1.2l6.9-14.9c0.1-0.2,0.1-0.3,0.2-0.5C94.9,52.3,94.8,51.2,94.1,50.3z"></path> <path id="_x31__56_" d="M92,39.2c-0.3,0-0.7-0.2-0.9-0.5c-1-1.7-2.6-3-4.6-3.5c-1.9-0.5-4-0.3-5.7,0.7c-0.5,0.3-1.1,0.1-1.4-0.4 s-0.1-1.1,0.4-1.4c2.2-1.3,4.8-1.6,7.2-0.9c2.5,0.7,4.5,2.2,5.8,4.4c0.3,0.5,0.1,1.1-0.4,1.4C92.4,39.1,92.2,39.2,92,39.2z"></path> <path id="_x31__55_" d="M96.8,36.4c-0.3,0-0.7-0.2-0.9-0.5c-1.7-3-4.5-5.2-7.9-6.1c-3.4-0.9-6.9-0.4-9.9,1.3 c-0.5,0.3-1.1,0.1-1.4-0.4c-0.3-0.5-0.1-1.1,0.4-1.4c3.5-2,7.5-2.5,11.4-1.5c3.9,1,7.1,3.5,9.1,7c0.3,0.5,0.1,1.1-0.4,1.4 C97.1,36.4,97,36.4,96.8,36.4z"></path> </g> </g></svg>